<svg width="336" height="45" viewBox="0 0 336 45" fill="none" xmlns="http://www.w3.org/2000/svg">
<path d="M0 22.5C0 10.0736 10.0736 0 22.5 0H313.5C325.926 0 336 10.0736 336 22.5C336 34.9264 325.926 45 313.5 45H22.5C10.0736 45 0 34.9264 0 22.5Z" fill="#FF6064"/>
<path d="M159.642 16.5455V26H158.534L153.382 18.5767H153.29V26H152.145V16.5455H153.253L158.423 23.9872H158.516V16.5455H159.642ZM164.758 26.1477C164.075 26.1477 163.486 25.9969 162.99 25.6953C162.498 25.3906 162.118 24.9659 161.85 24.4212C161.585 23.8733 161.453 23.2363 161.453 22.5099C161.453 21.7836 161.585 21.1435 161.85 20.5895C162.118 20.0324 162.49 19.5985 162.967 19.2876C163.447 18.9737 164.007 18.8168 164.647 18.8168C165.017 18.8168 165.381 18.8783 165.742 19.0014C166.102 19.1245 166.429 19.3246 166.725 19.6016C167.02 19.8755 167.256 20.2386 167.431 20.6911C167.607 21.1435 167.694 21.7005 167.694 22.3622V22.8239H162.228V21.8821H166.586C166.586 21.482 166.506 21.125 166.346 20.8111C166.189 20.4972 165.965 20.2494 165.672 20.0678C165.383 19.8862 165.041 19.7955 164.647 19.7955C164.214 19.7955 163.838 19.9032 163.521 20.1186C163.207 20.331 162.966 20.608 162.796 20.9496C162.627 21.2912 162.542 21.6574 162.542 22.0483V22.6761C162.542 23.2116 162.635 23.6656 162.819 24.038C163.007 24.4073 163.267 24.6889 163.6 24.8828C163.932 25.0736 164.318 25.169 164.758 25.169C165.044 25.169 165.303 25.129 165.534 25.049C165.768 24.9659 165.969 24.8428 166.139 24.6797C166.308 24.5135 166.439 24.3073 166.531 24.0611L167.584 24.3565C167.473 24.7135 167.287 25.0275 167.025 25.2983C166.763 25.5661 166.44 25.7753 166.055 25.9261C165.671 26.0739 165.238 26.1477 164.758 26.1477ZM169.974 18.9091L171.673 21.8082L173.371 18.9091H174.627L172.337 22.4545L174.627 26H173.371L171.673 23.2486L169.974 26H168.718L170.971 22.4545L168.718 18.9091H169.974ZM179.266 18.9091V19.8324H175.591V18.9091H179.266ZM176.662 17.2102H177.751V23.9688C177.751 24.2765 177.796 24.5073 177.885 24.6612C177.978 24.812 178.094 24.9136 178.236 24.9659C178.381 25.0152 178.533 25.0398 178.693 25.0398C178.813 25.0398 178.912 25.0336 178.989 25.0213C179.065 25.0059 179.127 24.9936 179.173 24.9844L179.395 25.9631C179.321 25.9908 179.218 26.0185 179.085 26.0462C178.953 26.0769 178.785 26.0923 178.582 26.0923C178.275 26.0923 177.973 26.0262 177.677 25.8938C177.385 25.7615 177.142 25.5599 176.948 25.2891C176.757 25.0182 176.662 24.6766 176.662 24.2642V17.2102Z" fill="white"/>
</svg>
